# xmcd
#
# Track frame offsets:
#	150
#	12150
#	24675
#	38550
#	53700
#	67350
#	79275
#	93375
#	106650
#	120375
#	135075
#	150075
#	165525
#	178125
#	191175
#	204225
#	215400
#	225750
#	240450
#	254325
#
# Disc length: 3590 seconds
#
# Revision: 0
# Processed by: cddbd v1.5.2PL0 Copyright (c) Steve Scherf et al.
# Submitted via: EasyCDDAExtractor 16.0.8.2
#
DISCID=f50e0414
DTITLE=Ζαγοραίος Σπύρος - Από τους θησ. 45 στροφών-Ζαγοραίος Σπύρος
DYEAR=1995
DGENRE=Λαϊκή
TTITLE0=Ζαγοραίος Σπύρος-Ζαγοραίου Ζωή - Ντόλτσε βίτα [Θ. Δερβενιώτη-Κ. Βίρβου
TTITLE0=]
TTITLE1=Ζαγοραίος Σπύρος-Ζαγοραίου Ζωή - Μην κοιτάζεις άλλα μάτια [Γ. Μητσάκη]
TTITLE2=Ζαγοραίος Σπύρος-Ζαγοραίου Ζωή - Προσευχή [Σ. Ζαγοραίου-Δ. Γκούτη]
TTITLE3=Ζαγοραίος Σπύρος-Ζαγοραίου Ζωή - Δώσ' μου μιά φωτογραφία [Κ. Βίρβου-Σ.
TTITLE3=Ζαγοραίου]
TTITLE4=Ζαγοραίος Σπύρος-Ζαγοραίου Ζωή-Μανισαλής Γ. - Μπαρμπα Θωμάς [Γ. Μητσάκ
TTITLE4=η]
TTITLE5=Ζαγοραίος Σπύρος - Στης Λαρίσης το ποτάμι [Γ. Μητσάκη]
TTITLE6=Ζαγοραίος Σπύρος - Μην είσαι ψεύτρα δίγνωμη [Απ. Χατζηχρήστου]
TTITLE7=Ζαγοραίος Σπύρος-Ζαγοραίου Ζωή - Καροτσέρη τράβα [Απ. Χατζηχρήστου]
TTITLE8=Ζαγοραίος Σπύρος - Μιά πεντάμορφη τσιγγάνα [Στρ.Βαλλιάνου-Ν.Δεπάστα]
TTITLE9=Ζαγοραίος Σπύρος - Βάλτε μου δυό γαρουφαλιές [Σ. Ζαγοραίου-Δ. Γκούτη]
TTITLE10=Ζαγοραίος Σπύρος-Ανδρεάδου Ελένη - Άναψε το τσιγάρο [Γερ. Κλουβάτου-Χ
TTITLE10=Βασιλειάδη]
TTITLE11=Ζαγοραίος Σπύρος-Γκίκα Βούλα - Θα πεθάνω γλυκειά μου αγάπη [Δ. Γκούτη
TTITLE11=]
TTITLE12=Ζαγοραίος Σπύρος-Κούρτη Ρία - Κι αν είναι φτωχοκόριτσο [Ν. Δαλέζιου-Σ
TTITLE12=Περιστέρη]
TTITLE13=Ζαγοραίος Σπύρος-Ζαγοραίου Ζωή - Κατηγόρα με [Δ. Γκούτη]
TTITLE14=Ζαγοραίος Σπύρος-Περπινιάδης Βαγγέλης - Από βραδύς ξεκίνησα [Δ. Γκόγκ
TTITLE14=ου Μπαγιαντέρα]
TTITLE15=Ζαγοραίος Σπύρος - Σάπιο σανίδι πάτησα [Γερ. Κλουβάτου-Χ. Βασιλειάδη]
TTITLE16=Ζαγοραίος Σπύρος - Μέσ' στης Πόλης το χαμάμ [διασκ. Σ. Ζαγοραίου]
TTITLE17=Ζαγοραίος Σπύρος - Τον Χάρο τον αντάμωσαν [Μ. Μπακάλη]
TTITLE18=Ζαγοραίος Σπύρος - Αυτά μού άφησες [Σ. Ζαγοραίου-Μαρ. Νυφόρου]
TTITLE19=Ζαγοραίος Σπύρος-Ζαγοραίου Ζωή - Το μαύρο σου μπεγλέρι [Σ. Ζαγοραίου-
TTITLE19=Δ. Γκούτη]
EXTD=
EXTT0=
EXTT1=
EXTT2=
EXTT3=
EXTT4=
EXTT5=
EXTT6=
EXTT7=
EXTT8=
EXTT9=
EXTT10=
EXTT11=
EXTT12=
EXTT13=
EXTT14=
EXTT15=
EXTT16=
EXTT17=
EXTT18=
EXTT19=
PLAYORDER=
